<?xml version="1.0" encoding="UTF-8"?>
<svg id="Layer_2" data-name="Layer 2" xmlns="http://www.w3.org/2000/svg" viewBox="0 0 329.63 67.35">
  <defs>
    <style>
      .cls-1 {
        fill: #1b2a4a;
      }

      .cls-1, .cls-2 {
        stroke-width: 0px;
      }

      .cls-2 {
        fill: #c8952e;
      }
    </style>
  </defs>
  <g id="Layer_1-2" data-name="Layer 1">
    <g>
      <g>
        <path class="cls-1" d="m88.58,25.41h-8.02v-8.54h8.02v8.54Zm0,41.2h-8.02V29.71h8.02v36.9Z"/>
        <path class="cls-2" d="m104.03,66.61h-8.02v-25.99h8.02v25.99Zm30.88,0h-9.43l-10.91-15.07h-14.11v-7.2h14.11l11.06-14.62h9.35l-13.88,17.74,13.81,19.15Z"/>
        <path class="cls-1" d="m149.75,67.35c-3.81,0-6.84-.85-9.09-2.56-2.25-1.71-3.38-4.07-3.38-7.09,0-1.93.48-3.55,1.45-4.86.96-1.31,2.34-2.34,4.12-3.08,1.78-.74,3.88-1.26,6.31-1.56l17.52-1.86v4.75l-15.22,1.71c-2.08.25-3.63.68-4.64,1.3-1.01.62-1.52,1.65-1.52,3.08s.53,2.59,1.6,3.3c1.06.72,2.73,1.08,5.01,1.08,2.82,0,5.27-.36,7.35-1.08s3.71-1.84,4.9-3.38c1.19-1.53,1.78-3.51,1.78-5.94l1.04.15v6.09h-1.04c-.99,3.12-2.88,5.56-5.68,7.31-2.8,1.76-6.3,2.64-10.5,2.64Zm24.05-.74h-7.35v-9.5l-.52-.22v-12.62c0-3.07-.73-5.21-2.19-6.42-1.46-1.21-3.97-1.82-7.54-1.82s-5.96.59-7.65,1.78c-1.68,1.19-2.52,3.14-2.52,5.86v.3h-7.94v-.3c0-2.82.74-5.33,2.23-7.54,1.48-2.2,3.62-3.95,6.42-5.23,2.8-1.29,6.15-1.93,10.06-1.93s7.11.66,9.61,1.97c2.5,1.31,4.35,3.11,5.57,5.38,1.21,2.28,1.82,4.9,1.82,7.87v22.42Z"/>
        <path class="cls-2" d="m188.95,66.61h-8.02v-25.99h8.02v25.99Z"/>
        <path class="cls-1" d="m207.21,67.35c-3.81,0-6.84-.85-9.09-2.56-2.25-1.71-3.38-4.07-3.38-7.09,0-1.93.48-3.55,1.45-4.86s2.34-2.34,4.12-3.08c1.78-.74,3.88-1.26,6.31-1.56l17.52-1.86v4.75l-15.22,1.71c-2.08.25-3.63.68-4.64,1.3-1.01.62-1.52,1.65-1.52,3.08s.53,2.59,1.6,3.3c1.06.72,2.73,1.08,5.01,1.08,2.82,0,5.27-.36,7.35-1.08,2.08-.72,3.71-1.84,4.9-3.38,1.19-1.53,1.78-3.51,1.78-5.94l1.04.15v6.09h-1.04c-.99,3.12-2.88,5.56-5.68,7.31-2.8,1.76-6.3,2.64-10.5,2.64Zm24.05-.74h-7.35v-9.5l-.52-.22v-12.62c0-3.07-.73-5.21-2.19-6.42-1.46-1.21-3.97-1.82-7.53-1.82s-5.96.59-7.65,1.78c-1.68,1.19-2.52,3.14-2.52,5.86v.3h-7.94v-.3c0-2.82.74-5.33,2.23-7.54,1.48-2.2,3.62-3.95,6.42-5.23,2.8-1.29,6.15-1.93,10.06-1.93s7.11.66,9.61,1.97c2.5,1.31,4.35,3.11,5.57,5.38,1.21,2.28,1.82,4.9,1.82,7.87v22.42Z"/>
        <path class="cls-1" d="m24.47,66.14h-11.58L0,17.34h8.74l7.94,30.88,2.19,10.34h.58l2.62-10.34,9.83-30.88h11.44l10.49,30.88,2.77,10.34h.58l2.04-10.34,7.28-30.88h8.59l-12.24,48.8h-11.58l-9.83-28.41-3.57-12.53h-.66l-3.5,12.53-9.25,28.41Z"/>
      </g>
      <g>
        <path class="cls-2" d="m136.37,4.81c22.38,0,42.22,18.82,44.57,39.15h8.34c-1.72-24.56-22.17-43.96-47.17-43.96-16.79,0-31.52,8.76-39.91,21.95,7.78-10.4,20.19-17.13,34.18-17.13Z"/>
        <path class="cls-2" d="m139.44,11.54c-18.45,0-33.57,14.21-35.06,32.28h-8.56c1.41-20.25,18.28-36.25,38.89-36.25,13.85,0,25.99,7.22,32.91,18.1-6.42-8.57-16.65-14.13-28.18-14.13Z"/>
      </g>
    </g>
    <g>
      <path class="cls-1" d="m329.63,18.91v24.23c-7.68-10.5-20.07-17.32-34.07-17.32s-25.57,6.38-33.28,16.3v-23.21C262.28,8.51,270.79,0,281.18,0h29.55c10.4,0,18.9,8.51,18.9,18.91Z"/>
      <path class="cls-2" d="m329.63,61.66v5.69h-67.35v-2.28c2.58-14.74,15.43-25.94,30.91-25.94,10.29,0,19.41,4.95,25.14,12.59-6.17-9.69-17.01-16.14-29.36-16.14-10.73,0-20.32,4.86-26.69,12.5v-5.48c6.95-7.67,17-12.48,28.17-12.48,18.71,0,35.43,14.75,39.18,31.54Z"/>
    </g>
  </g>
</svg>