<?xml version="1.0" encoding="UTF-8"?>
<svg id="Layer_2" data-name="Layer 2" xmlns="http://www.w3.org/2000/svg" viewBox="0 0 67.35 67.35">
  <defs>
    <style>
      .cls-1 {
        fill: #1b2a4a;
      }

      .cls-1, .cls-2 {
        stroke-width: 0px;
      }

      .cls-2 {
        fill: #c8952e;
      }
    </style>
  </defs>
  <g id="Layer_1-2" data-name="Layer 1">
    <g>
      <path class="cls-1" d="m67.35,18.91v24.23c-7.68-10.5-20.07-17.32-34.07-17.32S7.71,32.2,0,42.12v-23.21C0,8.51,8.51,0,18.9,0h29.55c10.4,0,18.9,8.51,18.9,18.91Z"/>
      <path class="cls-2" d="m67.35,61.66v5.69H0v-2.28c2.58-14.74,15.43-25.94,30.91-25.94,10.29,0,19.41,4.95,25.14,12.59-6.17-9.69-17.01-16.14-29.36-16.14C15.96,35.58,6.37,40.44,0,48.08v-5.48c6.95-7.67,17-12.48,28.17-12.48,18.71,0,35.43,14.75,39.18,31.54Z"/>
    </g>
  </g>
</svg>